# xmcd CD database file
#
# Track frame offsets:
#	150
#	12647
#	22620
#	35171
#	46639
#	54246
#	65218
#	75294
#	87757
#	96137
#	106297
#	118358
#	129710
#	139587
#	151446
#	161937
#
# Disc length: 2303 seconds
#
# Revision: 4
# Processed by: cddbd v1.5.2PL0 Copyright (c) Steve Scherf et al.
# Submitted via: CDex 1.51
#
DISCID=ce08fd10
DTITLE=Johnny Cash - Forever Johnny Cash [CD1]
DYEAR=2006
DGENRE=Country
TTITLE0=I Walk the Line
TTITLE1=Ballad of a Teenage Queen
TTITLE2=Folsom Prison Blues
TTITLE3=Big River
TTITLE4=Come in Stranger
TTITLE5=Cry, Cry, Cry
TTITLE6=Get Rhythm
TTITLE7=Give My Love to Rose
TTITLE8=Guess Things Happen That Way
TTITLE9=Hey Porter
TTITLE10=Home of the Blues
TTITLE11=Oh Lonesome Me
TTITLE12=Rock Island Line
TTITLE13=So Doggone Lonesome
TTITLE14=There You Go
TTITLE15=Train of Love
EXTD=YEAR: 2006
EXTT0=
EXTT1=
EXTT2=
EXTT3=
EXTT4=
EXTT5=
EXTT6=
EXTT7=
EXTT8=
EXTT9=
EXTT10=
EXTT11=
EXTT12=
EXTT13=
EXTT14=
EXTT15=
PLAYORDER=
